<svg width="180" height="192" viewBox="0 0 180 192" fill="none" xmlns="http://www.w3.org/2000/svg">
<path d="M33.5 119.5L1 125.5V192H43L60 137L130 104.5L66.5 113.5L75.5 84.5L33.5 119.5Z" fill="white"/>
<path d="M44.5 0H0L77.5 55.5L93 101L99.5 72.5L124.5 90L101 64.5L117.5 2C114.7 0.4 105.333 0 101 0H59L66.5 25L44.5 0Z" fill="#2A2A2F"/>
<path d="M131 67L161.5 25.5C169.5 31.5 176.167 41.3333 178.5 45.5L131 67Z" fill="white"/>
<path d="M144.5 142L137.5 91L180 144C166.4 170.8 136.333 184.5 123 188L125.5 134L144.5 142Z" fill="#5A5A5D"/>
</svg>
