<svg width="127" height="127" viewBox="0 0 127 127" fill="none" xmlns="http://www.w3.org/2000/svg">
<path d="M63.5 0.0625C28.4678 0.0625 0.0625 29.2041 0.0625 65.1143C0.0625 93.8594 18.2441 118.215 43.4492 126.824C43.8028 126.901 44.1636 126.939 44.5254 126.938C46.876 126.938 47.7822 125.21 47.7822 123.709C47.7822 122.151 47.7256 118.073 47.6973 112.636C45.5988 113.128 43.4521 113.384 41.2969 113.4C29.0908 113.4 26.3154 103.913 26.3154 103.913C23.4268 96.4082 19.2637 94.3975 19.2637 94.3975C13.7412 90.5176 19.2354 90.4043 19.6602 90.4043H19.6885C26.0605 90.9707 29.4023 97.1445 29.4023 97.1445C32.5742 102.695 36.8223 104.253 40.6172 104.253C43.1265 104.203 45.5969 103.624 47.8672 102.554C48.4336 98.3623 50.0762 95.502 51.8887 93.8594C37.8135 92.2168 23.002 86.6377 23.002 61.7158C23.002 54.6074 25.4658 48.8018 29.5156 44.2705C28.8643 42.6279 26.6836 36.001 30.1387 27.0518C30.6021 26.9409 31.0785 26.8932 31.5547 26.9102C33.8486 26.9102 39.0313 27.7881 47.584 33.7353C57.9762 30.8277 68.9671 30.8277 79.3594 33.7353C87.9121 27.7881 93.0947 26.9102 95.3887 26.9102C95.8649 26.8932 96.3412 26.9409 96.8047 27.0518C100.26 36.001 98.0791 42.6279 97.4277 44.2705C101.478 48.8301 103.941 54.6357 103.941 61.7158C103.941 86.6943 89.1016 92.1885 74.9697 93.8027C77.2354 95.8135 79.2744 99.7783 79.2744 105.839C79.2744 114.533 79.1895 121.557 79.1895 123.681C79.1895 125.21 80.0674 126.938 82.418 126.938C82.7985 126.939 83.1781 126.901 83.5508 126.824C108.784 118.215 126.938 93.8311 126.938 65.1143C126.938 29.2041 98.5322 0.0625 63.5 0.0625Z" fill="white"/>
</svg>
