<svg width="127" height="127" viewBox="0 0 127 127" fill="none" xmlns="http://www.w3.org/2000/svg">
<path d="M116.79 0.0625H10.9035C5.11768 0.0625 0.0625 4.22559 0.0625 9.94346V116.065C0.0625 121.814 5.11768 126.938 10.9035 126.938H116.759C122.576 126.938 126.938 121.78 126.938 116.065V9.94346C126.971 4.22559 122.576 0.0625 116.79 0.0625ZM39.3909 105.819H21.2149V49.3059H39.3909V105.819ZM30.9316 40.7135H30.8014C24.9844 40.7135 21.2178 36.3833 21.2178 30.9628C21.2178 25.4432 25.0835 21.2149 31.0308 21.2149C36.978 21.2149 40.6172 25.412 40.7475 30.9628C40.7446 36.3833 36.978 40.7135 30.9316 40.7135ZM105.819 105.819H87.6431V74.9188C87.6431 67.5158 84.9979 62.4578 78.422 62.4578C73.3979 62.4578 70.4243 65.8563 69.1018 69.1669C68.6062 70.3564 68.473 71.9763 68.473 73.6302V105.819H50.2971V49.3059H68.473V57.1704C71.1182 53.4038 75.2501 47.9833 84.8648 47.9833C96.7962 47.9833 105.822 55.8479 105.822 72.8032L105.819 105.819Z" fill="white"/>
</svg>
